<?xml version="1.0" encoding="UTF-8"?>
<svg width="430px" height="430px" viewBox="0 0 430 430" version="1.1" xmlns="http://www.w3.org/2000/svg" xmlns:xlink="http://www.w3.org/1999/xlink">
    <!-- Generator: Sketch 52.6 (67491) - http://www.bohemiancoding.com/sketch -->
    <title>Group</title>
    <desc>Created with Sketch.</desc>
    <g id="Page-1" stroke="none" stroke-width="1" fill="none" fill-rule="evenodd">
        <g id="Group" fill="#1A202C" fill-rule="nonzero">
            <path d="M15.1792292,206.455482 L86.4557117,178.033444 C104.341508,170.901347 124.281635,170.901347 142.167431,178.033444 L292.634789,238.033444 C306.95321,243.743023 322.916219,243.743023 337.23464,238.033444 L412.468319,208.033444 C413.2543,207.720028 414.061783,207.548896 414.862262,207.507795 C414.95382,209.993875 415,212.491544 415,215 C415,217.759725 414.944104,220.506395 414.833384,223.238939 L342.790574,251.966556 C324.904778,259.098653 304.964651,259.098653 287.078855,251.966556 L136.611497,191.966556 C122.293076,186.256977 106.330067,186.256977 92.0116456,191.966556 L16.777967,221.966556 C16.2373652,222.182125 15.6865913,222.330383 15.1349207,222.415317 C15.0452333,219.954629 15,217.482597 15,215 C15,212.137382 15.0601412,209.288812 15.1792292,206.455482 Z M21.5872981,163.900216 L86.4557117,138.033444 C104.341508,130.901347 124.281635,130.901347 142.167431,138.033444 L292.634789,198.033444 C306.95321,203.743023 322.916219,203.743023 337.23464,198.033444 L409.715364,169.131206 C410.871707,174.058919 411.845825,179.056839 412.63022,184.117467 L342.790574,211.966556 C324.904778,219.098653 304.964651,219.098653 287.078855,211.966556 L136.611497,151.966556 C122.293076,146.256977 106.330067,146.256977 92.0116456,151.966556 L17.7821582,181.566127 C18.7890804,175.583114 20.0616402,169.690285 21.5873078,163.900179 L21.5872981,163.900216 Z M17.3261028,245.5994 L86.4557117,218.033444 C104.341508,210.901347 124.281635,210.901347 142.167431,218.033444 L292.634789,278.033444 C306.95321,283.743023 322.916219,283.743023 337.23464,278.033444 L412.271769,248.11182 C411.275761,254.089793 410.014622,259.978057 408.500833,265.764123 L342.790574,291.966556 C324.904778,299.098653 304.964651,299.098653 287.078855,291.966556 L136.611497,231.966556 C122.293076,226.256977 106.330067,226.256977 92.0116456,231.966556 L20.2203324,260.593886 C19.070705,255.6633 18.1034621,250.662638 17.3261028,245.5994 Z" id="Shape"></path>
            <path d="M420.316838,277.279418 C419.115891,281.243634 414.928698,283.483707 410.964482,282.282759 C407.000265,281.081812 404.760193,276.894619 405.96114,272.930403 C407.850198,266.694795 409.433258,260.359287 410.702812,253.941657 C413.22088,241.212747 414.5,228.190651 414.5,215 C414.5,104.819192 325.180808,15.5 215,15.5 C188.446743,15.5 162.62943,20.6859718 138.639142,30.6338374 C134.812915,32.2204291 130.424958,30.4048459 128.838366,26.5786188 C127.251775,22.7523917 129.067358,18.364435 132.893585,16.7778432 C158.697352,6.07799658 186.466281,0.5 215,0.5 C333.465079,0.5 429.5,96.5349212 429.5,215 C429.5,229.169254 428.125118,243.166262 425.417651,256.852587 C424.052032,263.755832 422.349051,270.57127 420.316838,277.279418 Z M9.68316172,152.720582 C10.8841091,148.756366 15.0713017,146.516293 19.0355183,147.717241 C22.9997349,148.918188 25.2398072,153.105381 24.0388598,157.069597 C22.1498016,163.305205 20.5667415,169.640713 19.297188,176.058343 C16.7791195,188.787253 15.5,201.809349 15.5,215 C15.5,325.180808 104.819192,414.5 215,414.5 C241.553257,414.5 267.37057,409.314028 291.360858,399.366163 C295.187085,397.779571 299.575042,399.595154 301.161634,403.421381 C302.748225,407.247608 300.932642,411.635565 297.106415,413.222157 C271.302648,423.922003 243.533719,429.5 215,429.5 C96.5349212,429.5 0.5,333.465079 0.5,215 C0.5,200.830746 1.87488203,186.833738 4.58234914,173.147413 C5.9479684,166.244168 7.65094876,159.42873 9.68316172,152.720582 Z" id="Shape"></path>
            <path d="M344.858492,89.5310687 C347.736988,92.5095832 347.655906,97.2576283 344.677392,100.136124 C341.698877,103.01462 336.950832,102.933539 334.072336,99.9550245 C303.109431,67.9162565 260.609754,49.5 215.158678,49.5 C193.15047,49.5 171.75439,53.7973336 151.872472,62.0405838 C148.046175,63.6270065 143.658299,61.8112294 142.071876,57.9849321 C140.485453,54.1586349 142.30123,49.7707584 146.127528,48.1843357 C167.822761,39.1892662 191.170241,34.5 215.158678,34.5 C264.719072,34.5 311.097557,54.5970484 344.858492,89.5310687 Z M85.1415084,340.468931 C82.2630125,337.490417 82.3440936,332.742372 85.3226081,329.863876 C88.3011227,326.98538 93.0491678,327.066461 95.9276637,330.044976 C126.890569,362.083743 169.390246,380.5 214.841322,380.5 C236.84953,380.5 258.24561,376.202666 278.127528,367.959416 C281.953825,366.372994 286.341701,368.188771 287.928124,372.015068 C289.514547,375.841365 287.69877,380.229242 283.872472,381.815664 C262.177239,390.810734 238.829759,395.5 214.841322,395.5 C165.280928,395.5 118.902443,375.402952 85.1415084,340.468931 Z" id="Shape"></path>
        </g>
    </g>
</svg>